# xmcd
#
# Track frame offsets: 
#        150
#        16202
#        30949
#        44486
#        63333
#        88277
#        104221
#        120520
#        138547
#        156072
#        168320
#        183306
#
# Disc length: 2753 seconds
#
# Revision: 2
# Processed by: cddbd v1.5.2PL0 Copyright (c) Steve Scherf et al.
# Submitted via: ExactAudioCopy v1.0b1
#
DISCID=9d0abf0c
DTITLE=Воровайки - Первый альбом
DYEAR=2001
DGENRE=Chanson
TTITLE0=Вороваечки
TTITLE1=Хоп, мусорок
TTITLE2=Роза ветров
TTITLE3=Птица-лебедь
TTITLE4=Сирота
TTITLE5=Привет, Ростов
TTITLE6=Детки-паечки
TTITLE7=Суд присяжных
TTITLE8=Мамочка-воровочка
TTITLE9=Утомлённая солнцем
TTITLE10=Не быкуй, фраерок
TTITLE11=Я обниму мою любовь
EXTD=
EXTT0=
EXTT1=
EXTT2=
EXTT3=
EXTT4=
EXTT5=
EXTT6=
EXTT7=
EXTT8=
EXTT9=
EXTT10=
EXTT11=
PLAYORDER=
